<svg width="20" height="21" viewBox="0 0 20 21" fill="none" xmlns="http://www.w3.org/2000/svg">
<g id="Google-icon" clip-path="url(#clip0_7_48)">
<path id="Vector" d="M19.9894 10.4248C19.9894 9.58628 19.9214 8.97439 19.7741 8.33984H10.1992V12.1245H15.8195C15.7062 13.065 15.0943 14.4814 13.7345 15.4332L13.7155 15.5599L16.7429 17.9052L16.9526 17.9261C18.8789 16.1471 19.9894 13.5295 19.9894 10.4248Z" fill="#4285F4"/>
<path id="Vector_2" d="M10.1992 20.3963C12.9527 20.3963 15.2642 19.4898 16.9526 17.9261L13.7345 15.4332C12.8734 16.0337 11.7176 16.453 10.1992 16.453C7.50236 16.453 5.21346 14.674 4.39753 12.2151L4.27793 12.2253L1.12997 14.6615L1.08881 14.776C2.76582 18.1074 6.21054 20.3963 10.1992 20.3963Z" fill="#34A853"/>
<path id="Vector_3" d="M4.39754 12.2151C4.18225 11.5806 4.05765 10.9007 4.05765 10.1982C4.05765 9.49559 4.18225 8.81574 4.38621 8.18119L4.38051 8.04605L1.1931 5.57068L1.08882 5.62028C0.397637 7.00272 0.0010376 8.55514 0.0010376 10.1982C0.0010376 11.8412 0.397637 13.3935 1.08882 14.776L4.39754 12.2151Z" fill="#FBBC05"/>
<path id="Vector_4" d="M10.1992 3.94327C12.1142 3.94327 13.4059 4.77045 14.1425 5.4617L17.0206 2.65152C15.253 1.00849 12.9527 0 10.1992 0C6.21054 0 2.76582 2.2889 1.08881 5.62028L4.3862 8.18119C5.21346 5.7223 7.50236 3.94327 10.1992 3.94327Z" fill="#EB4335"/>
</g>
<defs>
<clipPath id="clip0_7_48">
<rect width="20" height="20.4666" fill="white"/>
</clipPath>
</defs>
</svg>
