<svg width="43" height="60" viewBox="0 0 43 60" fill="none" xmlns="http://www.w3.org/2000/svg">
<path d="M23.8696 2.00049V16.2948L27.7332 12.5205L31.6787 16.3818V2.00049H23.8696Z" fill="#BAE9A0"/>
<path d="M25.8052 31.7016H6.48074C5.92421 31.6711 5.40074 31.4332 5.01779 31.0368C4.63484 30.6405 4.42147 30.1157 4.42147 29.5702C4.42147 29.0247 4.63484 28.4999 5.01779 28.1035C5.40074 27.7071 5.92421 27.4693 6.48074 27.4387H25.8052C28.9409 27.4387 31.9481 26.2197 34.1654 24.0498C36.3827 21.8799 37.6283 18.9368 37.6283 15.8681C37.6283 12.7994 36.3827 9.85633 34.1654 7.68642C31.9481 5.5165 28.9409 4.29746 25.8052 4.29746H3.23947C2.9432 4.31372 2.64665 4.27064 2.36797 4.17087C2.08929 4.0711 1.83435 3.91673 1.61873 3.71721C1.40311 3.51769 1.23135 3.27722 1.11397 3.0105C0.996584 2.74379 0.936035 2.45643 0.936035 2.16603C0.936035 1.87562 0.996584 1.58827 1.11397 1.32156C1.23135 1.05484 1.40311 0.814363 1.61873 0.614845C1.83435 0.415326 2.08929 0.260962 2.36797 0.161191C2.64665 0.0614205 2.9432 0.018343 3.23947 0.0345961H25.8052C30.0962 0.0345961 34.2113 1.70276 37.2455 4.67212C40.2796 7.64148 41.9842 11.6688 41.9842 15.8681C41.9842 20.0674 40.2796 24.0947 37.2455 27.0641C34.2113 30.0334 30.0962 31.7016 25.8052 31.7016Z" fill="#BAE9A0"/>
<path d="M25.8472 59.065H3.28145C2.72492 59.0345 2.20145 58.7966 1.8185 58.4003C1.43555 58.0039 1.22217 57.4791 1.22217 56.9336C1.22217 56.3881 1.43555 55.8633 1.8185 55.4669C2.20145 55.0706 2.72492 54.8327 3.28145 54.8022H25.8472C27.4233 54.8393 28.9911 54.5675 30.4583 54.0029C31.9254 53.4382 33.2624 52.5921 34.3906 51.5143C35.5187 50.4365 36.4151 49.1488 37.0272 47.727C37.6393 46.3051 37.9546 44.7778 37.9546 43.2349C37.9546 41.692 37.6393 40.1647 37.0272 38.7428C36.4151 37.3209 35.5187 36.0332 34.3906 34.9554C33.2624 33.8776 31.9254 33.0315 30.4583 32.4669C28.9911 31.9022 27.4233 31.6305 25.8472 31.6676H6.52955C6.23327 31.6838 5.93672 31.6408 5.65804 31.541C5.37936 31.4412 5.12441 31.2868 4.90879 31.0873C4.69317 30.8878 4.52142 30.6473 4.40403 30.3806C4.28665 30.1139 4.2261 29.8265 4.2261 29.5361C4.2261 29.2457 4.28665 28.9584 4.40403 28.6917C4.52142 28.425 4.69317 28.1845 4.90879 27.985C5.12441 27.7854 5.37936 27.6311 5.65804 27.5313C5.93672 27.4315 6.23327 27.3885 6.52955 27.4047H25.8472C27.9994 27.3614 30.1388 27.7388 32.14 28.5149C34.1413 29.291 35.9641 30.4501 37.5018 31.9244C39.0396 33.3987 40.2612 35.1584 41.0952 37.1005C41.9292 39.0427 42.3587 41.1282 42.3587 43.2349C42.3587 45.3415 41.9292 47.427 41.0952 49.3692C40.2612 51.3113 39.0396 53.0711 37.5018 54.5453C35.9641 56.0196 34.1413 57.1787 32.14 57.9548C30.1388 58.7309 27.9994 59.1083 25.8472 59.065Z" fill="#BAE9A0"/>
<path d="M2.52122 31.4729H2.41181C1.85528 31.4424 1.33181 31.2045 0.94886 30.8082C0.565909 30.4118 0.352539 29.887 0.352539 29.3415C0.352539 28.796 0.565909 28.2712 0.94886 27.8748C1.33181 27.4785 1.85528 27.2406 2.41181 27.2101C3.97524 27.247 5.53044 26.9776 6.98589 26.4176C8.44133 25.8576 9.76763 25.0184 10.8867 23.9493C12.0058 22.8802 12.8952 21.6029 13.5023 20.1924C14.1095 18.782 14.4223 17.267 14.4223 15.7365C14.4223 14.206 14.1095 12.6909 13.5023 11.2805C12.8952 9.87007 12.0058 8.59273 10.8867 7.52365C9.76763 6.45457 8.44133 5.61534 6.98589 5.05535C5.53044 4.49536 3.97524 4.22591 2.41181 4.26287C1.85528 4.23234 1.33181 3.99447 0.94886 3.5981C0.565909 3.20173 0.352539 2.67693 0.352539 2.13144C0.352539 1.58594 0.565909 1.06114 0.94886 0.664768C1.33181 0.268397 1.85528 0.0305299 2.41181 0H2.58276C6.76352 0.119374 10.7322 1.8286 13.6462 4.76486C16.5603 7.70111 18.1903 11.6332 18.1903 15.7264C18.1903 19.8197 16.5603 23.7517 13.6462 26.688C10.7322 29.6243 6.76352 31.3335 2.58276 31.4528L2.52122 31.4729Z" fill="#BAE9A0"/>
<path d="M2.30344 27.2114C2.00716 27.1951 1.71062 27.2382 1.43194 27.3379C1.15326 27.4377 0.898303 27.5921 0.682684 27.7916C0.467064 27.9911 0.295307 28.2316 0.177923 28.4983C0.0605381 28.765 0 29.0524 0 29.3428C0 29.6332 0.0605381 29.9205 0.177923 30.1873C0.295307 30.454 0.467064 30.6944 0.682684 30.894C0.898303 31.0935 1.15326 31.2479 1.43194 31.3476C1.71062 31.4474 2.00716 31.4905 2.30344 31.4742C8.74493 31.4742 14.1881 36.9216 14.1881 43.3728C14.1844 46.4156 12.9477 49.3327 10.7492 51.4843C8.55069 53.6359 5.56989 54.8462 2.46071 54.8497C1.90419 54.8802 1.38072 55.1181 0.997773 55.5145C0.614822 55.9108 0.401442 56.4356 0.401442 56.9811C0.401442 57.5266 0.614822 58.0514 0.997773 58.4478C1.38072 58.8442 1.90419 59.0821 2.46071 59.1126H2.62483C6.85717 59.0616 10.8987 57.3812 13.8743 54.4353C16.8499 51.4894 18.5201 47.515 18.5234 43.3728C18.5234 34.6128 11.1041 27.2114 2.30344 27.2114Z" fill="#BAE9A0"/>
</svg>
