<svg width="184" height="26" viewBox="0 0 184 26" fill="none" xmlns="http://www.w3.org/2000/svg">
<g id="Group 1753">
<path id="Vector" d="M10.2861 6.57982C11.5028 6.55435 12.711 6.7835 13.8298 7.25194C14.9487 7.72038 15.9524 8.41731 16.7738 9.29608C18.4498 11.1327 19.3762 13.509 19.3762 15.9714C19.3762 18.4339 18.4498 20.8101 16.7738 22.6468C15.9433 23.5096 14.9362 24.1914 13.8184 24.6478C12.7005 25.1042 11.497 25.3249 10.2861 25.2956C9.19312 25.3147 8.11052 25.0854 7.12339 24.6258C6.13626 24.1662 5.27151 23.4888 4.59714 22.6468V24.8682H0V6.86646e-05H4.71781V9.09925C5.3951 8.29935 6.2467 7.65792 7.21021 7.22197C8.17371 6.78602 9.22469 6.56661 10.2861 6.57982ZM4.53968 15.9377C4.51441 17.2898 5.01569 18.6007 5.9418 19.6044C6.41538 20.0697 6.97821 20.439 7.59799 20.691C8.21776 20.943 8.88229 21.0727 9.55342 21.0727C10.2246 21.0727 10.8891 20.943 11.5089 20.691C12.1286 20.439 12.6915 20.0697 13.165 19.6044C14.0983 18.6049 14.6007 17.2912 14.5672 15.9377C14.6051 14.5936 14.1015 13.2887 13.165 12.3048C12.6927 11.8354 12.1292 11.4633 11.5077 11.2103C10.8862 10.9574 10.2193 10.8287 9.54616 10.8318C8.87305 10.8349 8.20738 10.9699 7.58837 11.2286C6.96935 11.4874 6.40951 11.8648 5.9418 12.3385C5.00589 13.3096 4.49987 14.6032 4.53392 15.9377H4.53968Z" fill="#BAE9A0"/>
<path id="Vector_2" d="M39.0409 15.5438C39.0293 16.2233 38.9737 16.9014 38.8743 17.574H25.1978C25.8644 20.1047 27.6362 21.37 30.5132 21.37C32.6167 21.3741 34.6708 20.7459 36.3976 19.5704L38.2709 22.8097C35.957 24.4444 33.1656 25.3043 30.3121 25.2616C27.1209 25.2616 24.6691 24.3562 22.9567 22.5454C21.2604 20.7521 20.3488 18.3803 20.4168 15.9375C20.3708 14.7028 20.5808 13.4719 21.0341 12.3188C21.4875 11.1658 22.1747 10.1145 23.0544 9.22838C24.8619 7.56757 27.2361 6.6241 29.715 6.58148C32.194 6.53886 34.6005 7.40015 36.4665 8.99781C38.1866 10.6137 39.0448 12.7957 39.0409 15.5438ZM29.9099 10.4037C28.8132 10.378 27.7426 10.7325 26.8873 11.4048C26.0258 12.1037 25.4305 13.0667 25.1978 14.1379H34.461C34.2935 13.0775 33.748 12.1093 32.921 11.4048C32.0747 10.7244 31.0045 10.3686 29.9099 10.4037Z" fill="#BAE9A0"/>
<path id="Vector_3" d="M45.6608 24.868H40.9488V7.03515H45.5459V9.52084C46.0666 8.59636 46.8568 7.84457 47.8157 7.36133C48.8762 6.80897 50.0624 6.52844 51.2636 6.54589C52.193 6.52542 53.1175 6.68534 53.9834 7.01642C54.8494 7.34749 55.6398 7.84317 56.3089 8.47482C57.6957 9.76453 58.3872 11.5979 58.3834 13.9748V24.868H53.6713V15.2177C53.7527 14.0468 53.3906 12.8877 52.6542 11.9615C52.3053 11.5748 51.8723 11.2695 51.3871 11.0681C50.9018 10.8666 50.3766 10.7741 49.85 10.7974C49.2817 10.7773 48.7158 10.8797 48.1925 11.0974C47.6692 11.3151 47.2012 11.6428 46.8216 12.0571C46.0313 12.9611 45.6207 14.1247 45.6723 15.3133L45.6608 24.868Z" fill="#BAE9A0"/>
<path id="Vector_4" d="M69.8077 25.2624C68.528 25.3047 67.2526 25.095 66.0572 24.6458C64.8618 24.1966 63.7708 23.517 62.8488 22.6473C61.9444 21.7749 61.2352 20.728 60.7663 19.573C60.2974 18.418 60.079 17.1802 60.125 15.9382C60.077 14.6945 60.2961 13.4548 60.7683 12.2991C61.2404 11.1434 61.9551 10.0976 62.8661 9.22914C63.8009 8.34744 64.9073 7.65861 66.1196 7.20359C67.3318 6.74857 68.6251 6.53663 69.9227 6.58037C71.7263 6.54974 73.5044 7.00081 75.0657 7.88508C76.5632 8.72786 77.7514 10.0108 78.4619 11.5517L74.6807 13.5819C73.5659 11.7711 72.0182 10.8656 70.0376 10.8656C69.3476 10.8409 68.6601 10.9593 68.0203 11.2133C67.3804 11.4673 66.8028 11.8509 66.3254 12.3391C65.8415 12.8085 65.4612 13.3701 65.2082 13.9892C64.9551 14.6083 64.8347 15.2717 64.8543 15.9382C64.8302 16.6125 64.9449 17.2846 65.1917 17.9145C65.4385 18.5445 65.8123 19.1193 66.2909 19.6049C66.766 20.0751 67.3342 20.4453 67.9606 20.6929C68.5871 20.9405 69.2587 21.0601 69.9342 21.0446C70.9008 21.0417 71.8484 20.7812 72.6752 20.291C73.4913 19.8432 74.1547 19.1705 74.583 18.3564L78.3929 20.5497C77.6076 21.9974 76.4099 23.1911 74.945 23.9858C73.3794 24.8517 71.6058 25.2924 69.8077 25.2624Z" fill="#BAE9A0"/>
<path id="Vector_5" d="M84.6505 24.8681H79.9384V0H84.5356V9.35787C85.085 8.47782 85.8834 7.77261 86.8341 7.32771C87.9028 6.80063 89.0853 6.53254 90.282 6.54601C91.2068 6.52803 92.1262 6.6892 92.9871 7.02024C93.8481 7.35128 94.6336 7.84567 95.2986 8.47495C96.6777 9.76465 97.3692 11.598 97.3731 13.9749V24.8681H92.6552V15.2178C92.7286 14.0479 92.3674 12.8914 91.6381 11.9616C91.2921 11.5745 90.8612 11.2688 90.3777 11.0673C89.8941 10.8657 89.3704 10.7735 88.8454 10.7975C88.2771 10.7774 87.7113 10.8799 87.1879 11.0975C86.6646 11.3152 86.1966 11.6429 85.817 12.0573C85.0267 12.9612 84.616 14.1248 84.6677 15.3134L84.6505 24.8681Z" fill="#BAE9A0"/>
<path id="Vector_6" d="M122.106 6.54616C123.084 6.50684 124.06 6.66365 124.974 7.00697C125.888 7.35028 126.721 7.87285 127.421 8.54258C128.823 9.86978 129.526 11.7237 129.53 14.1044V24.8682H124.812V14.9536C124.887 13.8434 124.535 12.746 123.824 11.8774C123.49 11.5175 123.079 11.2341 122.62 11.0475C122.161 10.8608 121.666 10.7755 121.169 10.7977C120.628 10.7761 120.088 10.8688 119.586 11.0697C119.084 11.2706 118.632 11.5748 118.262 11.9618C117.489 12.8227 117.091 13.9447 117.153 15.0886V24.8682H112.417V14.9874C112.488 13.8777 112.136 12.7818 111.429 11.9112C111.096 11.5379 110.681 11.2429 110.216 11.0482C109.75 10.8534 109.246 10.764 108.74 10.7864C108.202 10.7692 107.667 10.8659 107.171 11.0697C106.675 11.2735 106.23 11.5797 105.867 11.9674C105.08 12.8266 104.667 13.9527 104.717 15.1055V24.857H100.005V7.03542H104.602V9.58859C105.128 8.63534 105.927 7.85339 106.901 7.3391C107.893 6.80948 109.006 6.53197 110.136 6.53197C111.267 6.53197 112.379 6.80948 113.371 7.3391C114.323 7.8704 115.077 8.68368 115.526 9.6617C116.212 8.66608 117.159 7.86958 118.267 7.35597C119.464 6.79529 120.779 6.51789 122.106 6.54616Z" fill="#BAE9A0"/>
<path id="Vector_7" d="M146.114 9.16116V7.03539H150.596V24.8682H146.114V22.8099C145.385 23.6111 144.487 24.2481 143.482 24.6772C142.477 25.1063 141.389 25.3173 140.293 25.2956C139.078 25.3309 137.87 25.1095 136.75 24.6466C135.631 24.1837 134.626 23.4901 133.805 22.6131C132.094 20.7729 131.182 18.3519 131.265 15.8646C131.222 14.6457 131.427 13.4306 131.869 12.2902C132.311 11.1498 132.981 10.1071 133.84 9.22302C134.663 8.36052 135.664 7.67854 136.776 7.22199C137.889 6.76544 139.087 6.54468 140.293 6.57425C141.397 6.56555 142.49 6.79248 143.495 7.23925C144.501 7.68602 145.394 8.34188 146.114 9.16116ZM146.177 15.9096C146.196 14.5561 145.667 13.2502 144.706 12.2767C144.244 11.7853 143.68 11.3966 143.052 11.1366C142.423 10.8766 141.745 10.7515 141.063 10.7695C140.376 10.7495 139.692 10.8737 139.058 11.1336C138.423 11.3936 137.853 11.7833 137.385 12.2767C136.473 13.2867 135.972 14.5902 135.978 15.9386C135.984 17.2869 136.498 18.5858 137.42 19.5875C137.894 20.063 138.461 20.4408 139.086 20.6988C139.712 20.9567 140.384 21.0896 141.063 21.0896C141.742 21.0896 142.414 20.9567 143.04 20.6988C143.665 20.4408 144.232 20.063 144.706 19.5875C145.666 18.6065 146.194 17.2959 146.177 15.9377V15.9096Z" fill="#BAE9A0"/>
<path id="Vector_8" d="M158.216 24.8685H153.504V7.03564H158.015V9.43134C158.481 8.53131 159.202 7.78139 160.091 7.2709C160.981 6.76041 162.001 6.51087 163.032 6.552C163.785 6.55427 164.532 6.68757 165.238 6.94566L164.842 11.3603C164.137 11.1381 163.404 11.0169 162.664 11.0004C162.051 10.9721 161.44 11.0799 160.875 11.3155C160.311 11.5512 159.809 11.9087 159.406 12.3613C158.613 13.2686 158.216 14.6145 158.216 16.3991V24.8685Z" fill="#BAE9A0"/>
<path id="Vector_9" d="M184 24.8681H178.213L172.18 17.2479L170.938 18.3277V24.8681H166.226V0H170.938V13.1201L177.581 7.03527H183.529L175.403 14.3461L184 24.8681Z" fill="#BAE9A0"/>
</g>
</svg>
