<svg width="192" height="56" viewBox="0 0 192 56" fill="none" xmlns="http://www.w3.org/2000/svg">
<path d="M10.7326 6.86536C12.0021 6.83878 13.2627 7.07788 14.4301 7.56665C15.5976 8.05543 16.6449 8.78261 17.5019 9.69952C19.2507 11.6159 20.2173 14.0953 20.2173 16.6646C20.2173 19.234 19.2507 21.7134 17.5019 23.6297C16.6353 24.53 15.5846 25.2414 14.4182 25.7176C13.2518 26.1938 11.996 26.4241 10.7326 26.3935C9.59216 26.4134 8.46257 26.1742 7.43259 25.6946C6.40262 25.2151 5.50033 24.5083 4.79668 23.6297V25.9475H0V0H4.9226V9.49415C5.62928 8.65953 6.51785 7.99025 7.52318 7.53538C8.5285 7.08051 9.6251 6.85158 10.7326 6.86536ZM4.73673 16.6294C4.71036 18.0402 5.2334 19.408 6.19972 20.4552C6.69385 20.9408 7.28111 21.3261 7.92779 21.5891C8.57447 21.852 9.26784 21.9873 9.96811 21.9873C10.6684 21.9873 11.3617 21.852 12.0084 21.5891C12.6551 21.3261 13.2424 20.9408 13.7365 20.4552C14.7103 19.4125 15.2345 18.0417 15.1995 16.6294C15.239 15.227 14.7136 13.8655 13.7365 12.8388C13.2437 12.3491 12.6557 11.9608 12.0072 11.6969C11.3588 11.4329 10.6629 11.2986 9.96053 11.3019C9.2582 11.3052 8.56364 11.446 7.91775 11.716C7.27187 11.986 6.68773 12.3797 6.19972 12.874C5.22318 13.8873 4.69519 15.237 4.73073 16.6294H4.73673Z" fill="#BAE9A0"/>
<path d="M40.7354 16.2187C40.7233 16.9277 40.6652 17.6352 40.5615 18.337H26.2914C26.9869 20.9775 28.8356 22.2977 31.8376 22.2977C34.0324 22.302 36.1756 21.6466 37.9773 20.42L39.932 23.7999C37.5176 25.5056 34.6051 26.4028 31.6277 26.3583C28.298 26.3583 25.7398 25.4135 23.953 23.5241C22.1831 21.653 21.2319 19.1782 21.3029 16.6294C21.2549 15.3412 21.474 14.0568 21.947 12.8537C22.42 11.6506 23.1371 10.5537 24.0549 9.62909C25.9409 7.89619 28.4181 6.91176 31.0047 6.8673C33.5913 6.82283 36.1023 7.72151 38.0493 9.38851C39.844 11.0745 40.7394 13.3513 40.7354 16.2187ZM31.208 10.8555C30.0637 10.8286 28.9466 11.1985 28.0542 11.8999C27.1553 12.6292 26.5342 13.634 26.2914 14.7517H35.9567C35.7819 13.6453 35.2127 12.635 34.3498 11.8999C33.4668 11.1901 32.3501 10.8188 31.208 10.8555Z" fill="#BAE9A0"/>
<path d="M47.6427 25.9473H42.7261V7.34044H47.5228V9.93403C48.066 8.96942 48.8905 8.185 49.8911 7.68078C50.9976 7.10445 52.2353 6.81174 53.4886 6.82994C54.4584 6.80859 55.423 6.97545 56.3265 7.3209C57.2301 7.66635 58.0548 8.18354 58.753 8.84261C60.2 10.1883 60.9215 12.1012 60.9175 14.5813V25.9473H56.0009V15.8781C56.0858 14.6565 55.708 13.447 54.9396 12.4807C54.5756 12.0772 54.1238 11.7586 53.6175 11.5484C53.1111 11.3382 52.5631 11.2417 52.0136 11.266C51.4207 11.245 50.8303 11.3519 50.2843 11.579C49.7382 11.8062 49.2499 12.148 48.8538 12.5804C48.0293 13.5236 47.6008 14.7377 47.6547 15.9779L47.6427 25.9473Z" fill="#BAE9A0"/>
<path d="M72.8378 26.3586C71.5025 26.4028 70.1717 26.184 68.9244 25.7153C67.6772 25.2466 66.5388 24.5375 65.5768 23.6301C64.6331 22.7198 63.8932 21.6274 63.4039 20.4223C62.9147 19.2172 62.6868 17.9257 62.7348 16.6298C62.6847 15.3321 62.9133 14.0385 63.406 12.8327C63.8986 11.6269 64.6443 10.5356 65.5948 9.62947C66.5703 8.70949 67.7247 7.99077 68.9896 7.516C70.2544 7.04122 71.6038 6.82009 72.9577 6.86573C74.8397 6.83376 76.6949 7.30441 78.324 8.22706C79.8865 9.10643 81.1263 10.445 81.8676 12.0529L77.9223 14.1712C76.7591 12.2817 75.1442 11.337 73.0777 11.337C72.3577 11.3111 71.6404 11.4348 70.9728 11.6998C70.3052 11.9647 69.7025 12.3651 69.2043 12.8744C68.6994 13.3642 68.3026 13.9502 68.0386 14.5962C67.7746 15.2422 67.6489 15.9343 67.6694 16.6298C67.6442 17.3333 67.7639 18.0346 68.0214 18.6919C68.2789 19.3491 68.669 19.949 69.1684 20.4556C69.664 20.9462 70.2569 21.3325 70.9105 21.5908C71.5642 21.8492 72.265 21.974 72.9697 21.9578C73.9784 21.9548 74.9671 21.683 75.8297 21.1715C76.6812 20.7043 77.3735 20.0023 77.8204 19.153L81.7956 21.4414C80.9762 22.952 79.7265 24.1974 78.1981 25.0267C76.5646 25.9302 74.7139 26.39 72.8378 26.3586Z" fill="#BAE9A0"/>
<path d="M88.3248 25.9475H83.4082V0H88.2049V9.76406C88.7782 8.84581 89.6113 8.10999 90.6032 7.64578C91.7183 7.09582 92.9521 6.81609 94.2007 6.83015C95.1657 6.81139 96.125 6.97955 97.0233 7.32497C97.9216 7.67038 98.7413 8.18622 99.4351 8.84282C100.874 10.1885 101.596 12.1014 101.6 14.5816V25.9475H96.677V15.8783C96.7536 14.6576 96.3767 13.451 95.6158 12.4809C95.2547 12.077 94.8051 11.758 94.3006 11.5477C93.7961 11.3374 93.2496 11.2412 92.7018 11.2662C92.1088 11.2452 91.5184 11.3521 90.9724 11.5793C90.4263 11.8064 89.938 12.1483 89.542 12.5806C88.7174 13.5238 88.2889 14.7379 88.3428 15.9781L88.3248 25.9475Z" fill="#BAE9A0"/>
<path d="M127.406 6.83024C128.427 6.78921 129.445 6.95283 130.399 7.31105C131.353 7.66926 132.222 8.21452 132.952 8.91332C134.415 10.2981 135.149 12.2325 135.153 14.7166V25.9476H130.23V15.6026C130.308 14.4442 129.94 13.2992 129.199 12.3929C128.85 12.0174 128.421 11.7217 127.943 11.5269C127.464 11.3322 126.947 11.2432 126.429 11.2663C125.864 11.2437 125.3 11.3405 124.777 11.5501C124.253 11.7597 123.782 12.0772 123.395 12.481C122.589 13.3792 122.174 14.5499 122.238 15.7435V25.9476H117.297V15.6378C117.371 14.48 117.003 13.3366 116.266 12.4281C115.918 12.0387 115.486 11.7309 115 11.5277C114.514 11.3245 113.988 11.2311 113.46 11.2546C112.899 11.2366 112.341 11.3374 111.823 11.5501C111.306 11.7628 110.842 12.0823 110.462 12.4868C109.641 13.3833 109.211 14.5583 109.263 15.7611V25.9359H104.346V7.34074H109.143V10.0047C109.691 9.01011 110.525 8.19421 111.541 7.6576C112.577 7.10499 113.737 6.81543 114.917 6.81543C116.096 6.81543 117.257 7.10499 118.293 7.6576C119.285 8.21196 120.073 9.06055 120.541 10.081C121.256 9.04217 122.244 8.2111 123.401 7.6752C124.65 7.09018 126.022 6.80074 127.406 6.83024Z" fill="#BAE9A0"/>
<path d="M152.457 9.55887V7.34083H157.134V25.9477H152.457V23.8001C151.696 24.636 150.759 25.3007 149.71 25.7484C148.662 26.1961 147.527 26.4163 146.383 26.3937C145.115 26.4304 143.855 26.1995 142.686 25.7165C141.518 25.2335 140.47 24.5098 139.614 23.5947C137.827 21.6746 136.877 19.1486 136.963 16.5533C136.918 15.2815 137.132 14.0136 137.594 12.8237C138.055 11.6339 138.754 10.5459 139.65 9.62342C140.509 8.72348 141.553 8.0119 142.714 7.53553C143.874 7.05916 145.125 6.82882 146.383 6.85967C147.535 6.85059 148.675 7.08738 149.724 7.55354C150.773 8.0197 151.706 8.70403 152.457 9.55887ZM152.523 16.6003C152.542 15.188 151.99 13.8254 150.988 12.8096C150.506 12.297 149.917 11.8913 149.261 11.6201C148.606 11.3488 147.898 11.2182 147.186 11.2371C146.469 11.2162 145.756 11.3457 145.094 11.617C144.432 11.8882 143.837 12.2949 143.349 12.8096C142.397 13.8635 141.874 15.2235 141.88 16.6304C141.887 18.0374 142.423 19.3926 143.385 20.4378C143.88 20.9339 144.471 21.3281 145.124 21.5973C145.777 21.8664 146.478 22.0051 147.186 22.0051C147.895 22.0051 148.596 21.8664 149.249 21.5973C149.902 21.3281 150.493 20.9339 150.988 20.4378C151.989 19.4142 152.54 18.0468 152.523 16.6296V16.6003Z" fill="#BAE9A0"/>
<path d="M165.084 25.9476H160.167V7.34074H164.874V9.84044C165.36 8.90134 166.112 8.11886 167.04 7.58622C167.968 7.05357 169.033 6.7932 170.108 6.83611C170.894 6.83848 171.674 6.97756 172.411 7.24686L171.997 11.8531C171.262 11.6213 170.496 11.4948 169.724 11.4776C169.085 11.4481 168.447 11.5605 167.858 11.8064C167.27 12.0523 166.745 12.4254 166.325 12.8976C165.497 13.8443 165.084 15.2486 165.084 17.1107V25.9476Z" fill="#BAE9A0"/>
<path d="M191.987 25.9475H185.949L179.654 17.9966L178.358 19.1232V25.9475H173.442V0H178.358V13.6896L185.29 7.34065H191.495L183.017 14.9688L191.987 25.9475Z" fill="#BAE9A0"/>
<path d="M9.86424 45.1186H4.34662L3.43363 47.7583H0.516037L5.49777 33.8849H8.73293L13.7147 47.7583H10.7772L9.86424 45.1186ZM9.11003 42.8956L7.10543 37.1002L5.10082 42.8956H9.11003ZM19.9829 47.9369C19.0832 47.9369 18.276 47.7781 17.5615 47.4606C16.847 47.1298 16.278 46.6865 15.8546 46.1308C15.4445 45.5751 15.2195 44.9598 15.1798 44.285H17.9783C18.0312 44.7084 18.2363 45.059 18.5936 45.3369C18.9641 45.6148 19.4206 45.7537 19.9631 45.7537C20.4923 45.7537 20.9025 45.6478 21.1936 45.4361C21.498 45.2244 21.6501 44.9532 21.6501 44.6224C21.6501 44.2651 21.4649 44.0005 21.0944 43.8285C20.7371 43.6432 20.1616 43.4448 19.3677 43.2331C18.5473 43.0346 17.8725 42.8295 17.3432 42.6178C16.8272 42.4061 16.3773 42.0819 15.9936 41.6453C15.6231 41.2086 15.4378 40.6198 15.4378 39.8788C15.4378 39.2702 15.6098 38.7144 15.9539 38.2116C16.3111 37.7088 16.8139 37.3119 17.4623 37.0208C18.1239 36.7297 18.8979 36.5841 19.7845 36.5841C21.0944 36.5841 22.1397 36.9149 22.9204 37.5765C23.701 38.2249 24.1311 39.1048 24.2105 40.2162H21.5509C21.5112 39.7796 21.3259 39.4356 20.9952 39.1842C20.6776 38.9195 20.2476 38.7872 19.7051 38.7872C19.2023 38.7872 18.8119 38.8798 18.5341 39.0651C18.2694 39.2503 18.1371 39.5083 18.1371 39.8391C18.1371 40.2096 18.3223 40.4941 18.6928 40.6926C19.0633 40.8778 19.6389 41.0697 20.4196 41.2681C21.2135 41.4666 21.8684 41.6717 22.3845 41.8834C22.9005 42.0951 23.3438 42.4259 23.7143 42.8758C24.098 43.3124 24.2965 43.8946 24.3097 44.6224C24.3097 45.2575 24.1311 45.8265 23.7738 46.3293C23.4298 46.8321 22.927 47.229 22.2654 47.5201C21.617 47.798 20.8562 47.9369 19.9829 47.9369ZM30.9968 47.9369C30.097 47.9369 29.2899 47.7781 28.5754 47.4606C27.8609 47.1298 27.2919 46.6865 26.8685 46.1308C26.4583 45.5751 26.2334 44.9598 26.1937 44.285H28.9922C29.0451 44.7084 29.2502 45.059 29.6074 45.3369C29.9779 45.6148 30.4344 45.7537 30.9769 45.7537C31.5062 45.7537 31.9164 45.6478 32.2075 45.4361C32.5118 45.2244 32.664 44.9532 32.664 44.6224C32.664 44.2651 32.4787 44.0005 32.1082 43.8285C31.751 43.6432 31.1754 43.4448 30.3815 43.2331C29.5611 43.0346 28.8863 42.8295 28.357 42.6178C27.841 42.4061 27.3911 42.0819 27.0074 41.6453C26.6369 41.2086 26.4517 40.6198 26.4517 39.8788C26.4517 39.2702 26.6237 38.7144 26.9677 38.2116C27.325 37.7088 27.8278 37.3119 28.4761 37.0208C29.1377 36.7297 29.9118 36.5841 30.7983 36.5841C32.1082 36.5841 33.1535 36.9149 33.9342 37.5765C34.7149 38.2249 35.1449 39.1048 35.2243 40.2162H32.5647C32.525 39.7796 32.3398 39.4356 32.009 39.1842C31.6914 38.9195 31.2614 38.7872 30.7189 38.7872C30.2161 38.7872 29.8258 38.8798 29.5479 39.0651C29.2833 39.2503 29.1509 39.5083 29.1509 39.8391C29.1509 40.2096 29.3362 40.4941 29.7067 40.6926C30.0772 40.8778 30.6527 41.0697 31.4334 41.2681C32.2273 41.4666 32.8823 41.6717 33.3983 41.8834C33.9144 42.0951 34.3576 42.4259 34.7281 42.8758C35.1118 43.3124 35.3103 43.8946 35.3235 44.6224C35.3235 45.2575 35.1449 45.8265 34.7877 46.3293C34.4436 46.8321 33.9408 47.229 33.2792 47.5201C32.6309 47.798 31.8701 47.9369 30.9968 47.9369ZM39.2121 35.4528C38.7225 35.4528 38.3124 35.3006 37.9816 34.9963C37.664 34.6788 37.5052 34.2884 37.5052 33.8253C37.5052 33.3622 37.664 32.9785 37.9816 32.6742C38.3124 32.3566 38.7225 32.1978 39.2121 32.1978C39.7017 32.1978 40.1052 32.3566 40.4228 32.6742C40.7536 32.9785 40.919 33.3622 40.919 33.8253C40.919 34.2884 40.7536 34.6788 40.4228 34.9963C40.1052 35.3006 39.7017 35.4528 39.2121 35.4528ZM40.5816 36.7628V47.7583H37.8029V36.7628H40.5816ZM47.8323 36.5841C48.6527 36.5841 49.3738 36.7495 49.9957 37.0803C50.6176 37.3979 51.1072 37.8147 51.4644 38.3307V36.7628H54.2629V47.8377C54.2629 48.8565 54.0578 49.7629 53.6476 50.5568C53.2375 51.3639 52.6222 51.9991 51.8018 52.4622C50.9815 52.9385 49.9891 53.1767 48.8247 53.1767C47.2633 53.1767 45.9799 52.8128 44.9743 52.0851C43.9819 51.3573 43.4195 50.3649 43.2872 49.1079H46.046C46.1916 49.6107 46.5025 50.0077 46.9789 50.2988C47.4684 50.6031 48.0572 50.7553 48.7453 50.7553C49.5524 50.7553 50.2074 50.5105 50.7102 50.0209C51.213 49.5446 51.4644 48.8168 51.4644 47.8377V46.1308C51.1072 46.6468 50.611 47.0769 49.9758 47.4209C49.354 47.7649 48.6394 47.9369 47.8323 47.9369C46.9061 47.9369 46.0593 47.6988 45.2918 47.2224C44.5244 46.7461 43.9157 46.0779 43.4658 45.2178C43.0292 44.3445 42.8109 43.3455 42.8109 42.2208C42.8109 41.1094 43.0292 40.1236 43.4658 39.2635C43.9157 38.4035 44.5178 37.7419 45.272 37.2788C46.0394 36.8157 46.8929 36.5841 47.8323 36.5841ZM51.4644 42.2605C51.4644 41.5857 51.3321 41.0101 51.0675 40.5338C50.8028 40.0442 50.4456 39.6737 49.9957 39.4223C49.5458 39.1577 49.0629 39.0254 48.5468 39.0254C48.0308 39.0254 47.5544 39.1511 47.1178 39.4025C46.6811 39.6539 46.3239 40.0244 46.046 40.5139C45.7814 40.9903 45.6491 41.5592 45.6491 42.2208C45.6491 42.8824 45.7814 43.4646 46.046 43.9674C46.3239 44.457 46.6811 44.8341 47.1178 45.0987C47.5677 45.3634 48.044 45.4957 48.5468 45.4957C49.0629 45.4957 49.5458 45.37 49.9957 45.1186C50.4456 44.8539 50.8028 44.4835 51.0675 44.0071C51.3321 43.5175 51.4644 42.9353 51.4644 42.2605ZM63.2684 36.604C64.5784 36.604 65.6369 37.0208 66.444 37.8544C67.2512 38.6747 67.6547 39.8259 67.6547 41.3078V47.7583H64.8761V41.6849C64.8761 40.8117 64.6578 40.1435 64.2211 39.6803C63.7845 39.204 63.189 38.9658 62.4348 38.9658C61.6674 38.9658 61.0587 39.204 60.6089 39.6803C60.1722 40.1435 59.9539 40.8117 59.9539 41.6849V47.7583H57.1752V36.7628H59.9539V38.1322C60.3244 37.6559 60.7941 37.2854 61.3631 37.0208C61.9453 36.7429 62.5804 36.604 63.2684 36.604ZM84.1507 36.604C85.5003 36.604 86.5853 37.0208 87.4057 37.8544C88.2393 38.6747 88.6561 39.8259 88.6561 41.3078V47.7583H85.8774V41.6849C85.8774 40.8249 85.6591 40.1699 85.2225 39.72C84.7858 39.2569 84.1904 39.0254 83.4362 39.0254C82.682 39.0254 82.0799 39.2569 81.6301 39.72C81.1934 40.1699 80.9751 40.8249 80.9751 41.6849V47.7583H78.1964V41.6849C78.1964 40.8249 77.9781 40.1699 77.5415 39.72C77.1048 39.2569 76.5094 39.0254 75.7552 39.0254C74.9877 39.0254 74.3791 39.2569 73.9292 39.72C73.4926 40.1699 73.2742 40.8249 73.2742 41.6849V47.7583H70.4956V36.7628H73.2742V38.0925C73.6315 37.6294 74.088 37.2656 74.6437 37.0009C75.2127 36.7363 75.8346 36.604 76.5094 36.604C77.3695 36.604 78.1369 36.7892 78.8117 37.1597C79.4865 37.517 80.0092 38.033 80.3797 38.7078C80.7369 38.0727 81.253 37.5633 81.9278 37.1796C82.6158 36.7958 83.3568 36.604 84.1507 36.604ZM101.713 42.0224C101.713 42.4193 101.686 42.7766 101.633 43.0941H93.5952C93.6614 43.888 93.9392 44.5099 94.4288 44.9598C94.9184 45.4097 95.5204 45.6346 96.2349 45.6346C97.267 45.6346 98.0014 45.1913 98.438 44.3048H101.435C101.117 45.3634 100.509 46.2367 99.609 46.9247C98.7092 47.5995 97.6044 47.9369 96.2945 47.9369C95.2359 47.9369 94.2832 47.7054 93.4364 47.2423C92.6028 46.7659 91.9478 46.0977 91.4715 45.2377C91.0084 44.3776 90.7768 43.3852 90.7768 42.2605C90.7768 41.1226 91.0084 40.1236 91.4715 39.2635C91.9346 38.4035 92.583 37.7419 93.4166 37.2788C94.2502 36.8157 95.2095 36.5841 96.2945 36.5841C97.3398 36.5841 98.2726 36.8091 99.093 37.2589C99.9266 37.7088 100.568 38.3506 101.018 39.1842C101.481 40.0045 101.713 40.9506 101.713 42.0224ZM98.835 41.2285C98.8217 40.5139 98.5637 39.945 98.0609 39.5216C97.5581 39.0849 96.9428 38.8666 96.2151 38.8666C95.527 38.8666 94.9448 39.0783 94.4685 39.5017C94.0054 39.9119 93.7209 40.4875 93.615 41.2285H98.835ZM110.033 36.604C111.343 36.604 112.401 37.0208 113.208 37.8544C114.015 38.6747 114.419 39.8259 114.419 41.3078V47.7583H111.64V41.6849C111.64 40.8117 111.422 40.1435 110.985 39.6803C110.549 39.204 109.953 38.9658 109.199 38.9658C108.432 38.9658 107.823 39.204 107.373 39.6803C106.936 40.1435 106.718 40.8117 106.718 41.6849V47.7583H103.939V36.7628H106.718V38.1322C107.089 37.6559 107.558 37.2854 108.127 37.0208C108.71 36.7429 109.345 36.604 110.033 36.604ZM120.495 39.0452V44.3644C120.495 44.7349 120.581 45.0061 120.753 45.1781C120.938 45.3369 121.243 45.4163 121.666 45.4163H122.956V47.7583H121.21C118.867 47.7583 117.696 46.6204 117.696 44.3445V39.0452H116.387V36.7628H117.696V34.0436H120.495V36.7628H122.956V39.0452H120.495Z" fill="white"/>
</svg>
